<?xml version="1.0" encoding="iso-8859-1"?>
<!-- Generator: Adobe Illustrator 19.0.0, SVG Export Plug-In . SVG Version: 6.00 Build 0)  -->
<svg version="1.1" id="Layer_1" xmlns="http://www.w3.org/2000/svg" xmlns:xlink="http://www.w3.org/1999/xlink" x="0px" y="0px"
	 viewBox="0 0 512 512" style="enable-background:new 0 0 512 512;" xml:space="preserve">
<g transform="translate(1 1)">
	<path style="fill:#e3d110;" d="M238.787,486.253l-7.68-222.72c-5.973-0.853-11.947-1.707-17.067-3.413l16.213,226.133
		c0.853,9.387,7.68,17.067,17.067,17.067l0,0C243.053,503.32,239.64,495.64,238.787,486.253"/>
	<path style="fill:#e3d110;" d="M262.68,262.68L255,485.4c0,9.387-3.413,17.067-8.533,17.067c9.387,0,16.213-7.68,17.067-17.067
		l16.213-226.133C273.773,260.973,268.653,261.827,262.68,262.68"/>
	<g>
		<path style="fill:#e3d110;" d="M280.6,262.68L263.533,485.4c0,9.387-4.267,17.067-8.533,17.067c16.213,0,25.6-7.68,26.453-17.067
			l16.213-226.133C291.693,260.973,286.573,261.827,280.6,262.68"/>
		<path style="fill:#e3d110;" d="M246.467,263.533c-5.973,0-11.093-1.707-16.213-4.267l7.68,226.133
			c0,9.387,3.413,17.067,8.533,17.067c4.267,0,7.68-7.68,8.533-17.067l7.68-226.133C257.56,261.827,252.44,263.533,246.467,263.533"
			/>
	</g>
	<path style="fill:#e3d110;" d="M348.867,135.533c0-52.053-31.573-97.28-76.8-116.907V7.533c-8.533,0-17.067,0.853-25.6,2.56
		c-8.533-1.707-17.067-2.56-25.6-2.56v11.093c-45.227,19.627-76.8,64.853-76.8,116.907s31.573,97.28,76.8,116.907v11.093
		c8.533,0,17.067-0.853,25.6-2.56c8.533,1.707,17.067,2.56,25.6,2.56V252.44C317.293,232.813,348.867,187.587,348.867,135.533"/>
	<path style="fill:#e3d110;" d="M220.867,252.44c-45.227-19.627-76.8-64.853-76.8-116.907s31.573-97.28,76.8-116.907v-8.533
		c-58.027,11.947-102.4,63.147-102.4,125.44s44.373,113.493,102.4,125.44V252.44z"/>
	<path style="fill:#e3d110;" d="M272.067,10.093v8.533c45.227,19.627,76.8,64.853,76.8,116.907s-31.573,97.28-76.8,116.907v8.533
		c58.027-11.947,102.4-63.147,102.4-125.44S330.093,22.04,272.067,10.093"/>
	<path style="fill:#e3d110;" d="M297.667,10.093v8.533c45.227,19.627,76.8,64.853,76.8,116.907s-31.573,97.28-76.8,116.907v8.533
		c58.027-11.947,102.4-63.147,102.4-125.44S355.693,22.04,297.667,10.093"/>
	<path d="M246.467,272.067c-75.093,0-136.533-61.44-136.533-136.533c0-18.773,3.413-37.547,11.093-54.613
		c1.707-4.267,6.827-5.973,11.093-4.267c4.267,1.707,5.973,6.827,4.267,11.093c-5.973,15.36-9.387,31.573-9.387,47.787
		C127,201.24,180.76,255,246.467,255s119.467-53.76,119.467-119.467S312.173,16.067,246.467,16.067
		c-26.453,0-51.2,8.533-71.68,23.893c-3.413,2.56-9.387,1.707-11.947-1.707c-2.56-3.413-1.707-9.387,1.707-11.947
		C188.44,8.387,216.6-1,246.467-1C321.56-1,383,60.44,383,135.533S321.56,272.067,246.467,272.067z"/>
	<path d="M152.6,58.733c0-5.12-3.413-8.533-8.533-8.533c-5.12,0-8.533,3.413-8.533,8.533s3.413,8.533,8.533,8.533
		C149.187,67.267,152.6,63.853,152.6,58.733"/>
	<path style="fill:#e3d110;" d="M263.533,109.933c0-23.893-18.773-42.667-42.667-42.667S178.2,86.04,178.2,109.933
		s18.773,42.667,42.667,42.667S263.533,133.827,263.533,109.933"/>
	<path d="M220.867,161.133c-28.16,0-51.2-23.04-51.2-51.2s23.04-51.2,51.2-51.2s51.2,23.04,51.2,51.2
		S249.027,161.133,220.867,161.133z M220.867,75.8c-18.773,0-34.133,15.36-34.133,34.133s15.36,34.133,34.133,34.133
		S255,128.707,255,109.933S239.64,75.8,220.867,75.8z"/>
	<path d="M306.2,212.333c-2.56,0-4.267-0.853-5.973-2.56l-59.733-59.733c-3.413-3.413-3.413-8.533,0-11.947
		c3.413-3.413,8.533-3.413,11.947,0l59.733,59.733c3.413,3.413,3.413,8.533,0,11.947C310.467,211.48,308.76,212.333,306.2,212.333z"
		/>
	<path d="M246.467,511c-13.653,0-24.747-10.24-25.6-24.747L204.653,260.12c0-2.56,0.853-5.12,3.413-6.827
		c1.707-1.707,5.12-2.56,7.68-1.707c23.04,5.973,44.373,5.12,62.293,0.853c2.56-0.853,5.12,0,7.68,1.707
		c1.707,1.707,3.413,4.267,3.413,6.827l-17.067,225.28C271.213,500.76,260.12,511,246.467,511z M222.573,270.36l15.36,215.04
		c0,4.267,3.413,9.387,8.533,9.387c5.12,0,8.533-4.267,8.533-9.387l15.36-215.04C255.853,272.92,239.64,272.92,222.573,270.36z"/>
</g>
<g>
</g>
<g>
</g>
<g>
</g>
<g>
</g>
<g>
</g>
<g>
</g>
<g>
</g>
<g>
</g>
<g>
</g>
<g>
</g>
<g>
</g>
<g>
</g>
<g>
</g>
<g>
</g>
<g>
</g>
</svg>
